<mxfile host="Electron" agent="Mozilla/5.0 (Windows NT 10.0; Win64; x64) AppleWebKit/537.36 (KHTML, like Gecko) draw.io/26.0.15 Chrome/132.0.6834.196 Electron/34.2.0 Safari/537.36" version="26.0.15">
  <diagram id="C5RBs43oDa-KdzZeNtuy" name="Page-1">
    <mxGraphModel dx="2427" dy="1040" grid="1" gridSize="10" guides="1" tooltips="1" connect="1" arrows="1" fold="1" page="1" pageScale="1" pageWidth="827" pageHeight="1169" math="0" shadow="0">
      <root>
        <mxCell id="WIyWlLk6GJQsqaUBKTNV-0" />
        <mxCell id="WIyWlLk6GJQsqaUBKTNV-1" parent="WIyWlLk6GJQsqaUBKTNV-0" />
        <mxCell id="yEGrShc0nkDmfcy5XUrJ-1" value="Start" style="rounded=1;whiteSpace=wrap;html=1;fontSize=16;" parent="WIyWlLk6GJQsqaUBKTNV-1" vertex="1">
          <mxGeometry x="345" y="30" width="120" height="60" as="geometry" />
        </mxCell>
        <mxCell id="yEGrShc0nkDmfcy5XUrJ-2" value="" style="endArrow=classic;html=1;rounded=0;fontSize=16;" parent="WIyWlLk6GJQsqaUBKTNV-1" source="yEGrShc0nkDmfcy5XUrJ-1" target="yEGrShc0nkDmfcy5XUrJ-3" edge="1">
          <mxGeometry width="50" height="50" relative="1" as="geometry">
            <mxPoint x="390" y="190" as="sourcePoint" />
            <mxPoint x="414" y="130" as="targetPoint" />
          </mxGeometry>
        </mxCell>
        <mxCell id="08z71slbajwtwQ3pmAD7-127" style="edgeStyle=orthogonalEdgeStyle;rounded=0;orthogonalLoop=1;jettySize=auto;html=1;entryX=0.5;entryY=0;entryDx=0;entryDy=0;" edge="1" parent="WIyWlLk6GJQsqaUBKTNV-1" source="yEGrShc0nkDmfcy5XUrJ-3" target="yEGrShc0nkDmfcy5XUrJ-7">
          <mxGeometry relative="1" as="geometry">
            <Array as="points">
              <mxPoint x="737" y="160" />
            </Array>
          </mxGeometry>
        </mxCell>
        <mxCell id="yEGrShc0nkDmfcy5XUrJ-3" value="Music streaming platform&amp;nbsp;&lt;div&gt;Login page&lt;/div&gt;" style="rounded=0;whiteSpace=wrap;html=1;fontSize=16;" parent="WIyWlLk6GJQsqaUBKTNV-1" vertex="1">
          <mxGeometry x="320" y="120" width="170" height="70" as="geometry" />
        </mxCell>
        <mxCell id="yEGrShc0nkDmfcy5XUrJ-5" value="Users" style="rounded=0;whiteSpace=wrap;html=1;fontSize=16;" parent="WIyWlLk6GJQsqaUBKTNV-1" vertex="1">
          <mxGeometry x="30" y="230" width="120" height="60" as="geometry" />
        </mxCell>
        <mxCell id="b2F76i5s4Bah9nfROhkG-20" style="edgeStyle=orthogonalEdgeStyle;rounded=0;orthogonalLoop=1;jettySize=auto;html=1;entryX=0.5;entryY=0;entryDx=0;entryDy=0;fontSize=16;" parent="WIyWlLk6GJQsqaUBKTNV-1" source="yEGrShc0nkDmfcy5XUrJ-6" target="b2F76i5s4Bah9nfROhkG-17" edge="1">
          <mxGeometry relative="1" as="geometry">
            <Array as="points">
              <mxPoint x="420" y="300" />
              <mxPoint x="420" y="300" />
            </Array>
          </mxGeometry>
        </mxCell>
        <mxCell id="yEGrShc0nkDmfcy5XUrJ-6" value="Artists" style="rounded=0;whiteSpace=wrap;html=1;fontSize=16;" parent="WIyWlLk6GJQsqaUBKTNV-1" vertex="1">
          <mxGeometry x="345" y="230" width="120" height="60" as="geometry" />
        </mxCell>
        <mxCell id="yEGrShc0nkDmfcy5XUrJ-7" value="Admin" style="rounded=0;whiteSpace=wrap;html=1;fontSize=16;" parent="WIyWlLk6GJQsqaUBKTNV-1" vertex="1">
          <mxGeometry x="680" y="230" width="120" height="60" as="geometry" />
        </mxCell>
        <mxCell id="08z71slbajwtwQ3pmAD7-130" style="edgeStyle=orthogonalEdgeStyle;rounded=0;orthogonalLoop=1;jettySize=auto;html=1;entryX=0;entryY=0.5;entryDx=0;entryDy=0;" edge="1" parent="WIyWlLk6GJQsqaUBKTNV-1" source="yEGrShc0nkDmfcy5XUrJ-16" target="b2F76i5s4Bah9nfROhkG-59">
          <mxGeometry relative="1" as="geometry">
            <Array as="points">
              <mxPoint x="80" y="980" />
            </Array>
          </mxGeometry>
        </mxCell>
        <mxCell id="yEGrShc0nkDmfcy5XUrJ-16" value="Login" style="rhombus;whiteSpace=wrap;html=1;fontSize=16;" parent="WIyWlLk6GJQsqaUBKTNV-1" vertex="1">
          <mxGeometry x="40" y="340" width="80" height="80" as="geometry" />
        </mxCell>
        <mxCell id="08z71slbajwtwQ3pmAD7-129" style="edgeStyle=orthogonalEdgeStyle;rounded=0;orthogonalLoop=1;jettySize=auto;html=1;entryX=1;entryY=0.5;entryDx=0;entryDy=0;exitX=0.5;exitY=1;exitDx=0;exitDy=0;" edge="1" parent="WIyWlLk6GJQsqaUBKTNV-1" source="yEGrShc0nkDmfcy5XUrJ-17">
          <mxGeometry relative="1" as="geometry">
            <mxPoint x="737" y="429.99999999999994" as="sourcePoint" />
            <mxPoint x="480" y="980" as="targetPoint" />
            <Array as="points">
              <mxPoint x="740" y="980" />
            </Array>
          </mxGeometry>
        </mxCell>
        <mxCell id="yEGrShc0nkDmfcy5XUrJ-17" value="Login" style="rhombus;whiteSpace=wrap;html=1;fontSize=16;" parent="WIyWlLk6GJQsqaUBKTNV-1" vertex="1">
          <mxGeometry x="700" y="350" width="80" height="80" as="geometry" />
        </mxCell>
        <mxCell id="yEGrShc0nkDmfcy5XUrJ-18" value="" style="endArrow=classic;html=1;rounded=0;exitX=0.42;exitY=1.004;exitDx=0;exitDy=0;entryX=0.5;entryY=0;entryDx=0;entryDy=0;exitPerimeter=0;fontSize=16;" parent="WIyWlLk6GJQsqaUBKTNV-1" source="yEGrShc0nkDmfcy5XUrJ-5" target="yEGrShc0nkDmfcy5XUrJ-16" edge="1">
          <mxGeometry width="50" height="50" relative="1" as="geometry">
            <mxPoint x="80" y="340" as="sourcePoint" />
            <mxPoint x="50" y="320" as="targetPoint" />
          </mxGeometry>
        </mxCell>
        <mxCell id="yEGrShc0nkDmfcy5XUrJ-19" value="" style="endArrow=classic;html=1;rounded=0;exitX=0.5;exitY=1;exitDx=0;exitDy=0;entryX=0.5;entryY=0;entryDx=0;entryDy=0;fontSize=16;" parent="WIyWlLk6GJQsqaUBKTNV-1" source="yEGrShc0nkDmfcy5XUrJ-7" target="yEGrShc0nkDmfcy5XUrJ-17" edge="1">
          <mxGeometry width="50" height="50" relative="1" as="geometry">
            <mxPoint x="568" y="320" as="sourcePoint" />
            <mxPoint x="567" y="368" as="targetPoint" />
          </mxGeometry>
        </mxCell>
        <mxCell id="yEGrShc0nkDmfcy5XUrJ-20" value="" style="endArrow=classic;html=1;rounded=0;entryX=0;entryY=0.5;entryDx=0;entryDy=0;exitX=0;exitY=0.5;exitDx=0;exitDy=0;fontSize=16;" parent="WIyWlLk6GJQsqaUBKTNV-1" source="yEGrShc0nkDmfcy5XUrJ-16" target="yEGrShc0nkDmfcy5XUrJ-5" edge="1">
          <mxGeometry width="50" height="50" relative="1" as="geometry">
            <mxPoint x="30" y="370" as="sourcePoint" />
            <mxPoint x="20" y="360" as="targetPoint" />
            <Array as="points">
              <mxPoint y="380" />
              <mxPoint y="260" />
            </Array>
          </mxGeometry>
        </mxCell>
        <mxCell id="yEGrShc0nkDmfcy5XUrJ-21" value="" style="endArrow=classic;html=1;rounded=0;entryX=1;entryY=0.5;entryDx=0;entryDy=0;exitX=1;exitY=0.5;exitDx=0;exitDy=0;fontSize=16;" parent="WIyWlLk6GJQsqaUBKTNV-1" source="yEGrShc0nkDmfcy5XUrJ-17" target="yEGrShc0nkDmfcy5XUrJ-7" edge="1">
          <mxGeometry width="50" height="50" relative="1" as="geometry">
            <mxPoint x="857" y="380" as="sourcePoint" />
            <mxPoint x="847" y="260" as="targetPoint" />
            <Array as="points">
              <mxPoint x="817" y="390" />
              <mxPoint x="817" y="260" />
            </Array>
          </mxGeometry>
        </mxCell>
        <mxCell id="b2F76i5s4Bah9nfROhkG-18" value="" style="endArrow=classic;html=1;rounded=0;entryX=1;entryY=0.5;entryDx=0;entryDy=0;exitX=1;exitY=0.5;exitDx=0;exitDy=0;fontSize=16;" parent="WIyWlLk6GJQsqaUBKTNV-1" source="b2F76i5s4Bah9nfROhkG-17" target="yEGrShc0nkDmfcy5XUrJ-6" edge="1">
          <mxGeometry width="50" height="50" relative="1" as="geometry">
            <mxPoint x="480" y="380" as="sourcePoint" />
            <mxPoint x="470" y="340" as="targetPoint" />
            <Array as="points">
              <mxPoint x="510" y="380" />
              <mxPoint x="510" y="260" />
            </Array>
          </mxGeometry>
        </mxCell>
        <mxCell id="08z71slbajwtwQ3pmAD7-128" style="edgeStyle=orthogonalEdgeStyle;rounded=0;orthogonalLoop=1;jettySize=auto;html=1;" edge="1" parent="WIyWlLk6GJQsqaUBKTNV-1" source="b2F76i5s4Bah9nfROhkG-17" target="b2F76i5s4Bah9nfROhkG-59">
          <mxGeometry relative="1" as="geometry" />
        </mxCell>
        <mxCell id="b2F76i5s4Bah9nfROhkG-17" value="Login" style="rhombus;whiteSpace=wrap;html=1;fontSize=16;" parent="WIyWlLk6GJQsqaUBKTNV-1" vertex="1">
          <mxGeometry x="380" y="340" width="80" height="80" as="geometry" />
        </mxCell>
        <mxCell id="b2F76i5s4Bah9nfROhkG-63" style="edgeStyle=orthogonalEdgeStyle;rounded=0;orthogonalLoop=1;jettySize=auto;html=1;fontSize=16;" parent="WIyWlLk6GJQsqaUBKTNV-1" source="b2F76i5s4Bah9nfROhkG-59" target="b2F76i5s4Bah9nfROhkG-66" edge="1">
          <mxGeometry relative="1" as="geometry">
            <mxPoint x="413" y="1020" as="targetPoint" />
          </mxGeometry>
        </mxCell>
        <mxCell id="b2F76i5s4Bah9nfROhkG-59" value="Log Out" style="rounded=0;whiteSpace=wrap;html=1;fontSize=16;" parent="WIyWlLk6GJQsqaUBKTNV-1" vertex="1">
          <mxGeometry x="360" y="960" width="120" height="40" as="geometry" />
        </mxCell>
        <mxCell id="b2F76i5s4Bah9nfROhkG-66" value="End" style="rounded=1;whiteSpace=wrap;html=1;fontSize=16;" parent="WIyWlLk6GJQsqaUBKTNV-1" vertex="1">
          <mxGeometry x="360" y="1050" width="120" height="60" as="geometry" />
        </mxCell>
        <mxCell id="08z71slbajwtwQ3pmAD7-38" value="User profile-Create,View,Update,Delete&lt;div&gt;Music-Post&lt;span style=&quot;background-color: transparent; color: light-dark(rgb(0, 0, 0), rgb(255, 255, 255));&quot;&gt;,Listen,Update,Delete,Like,Unlike&lt;/span&gt;&lt;/div&gt;&lt;div&gt;Playlist-&lt;span style=&quot;background-color: transparent; color: light-dark(rgb(0, 0, 0), rgb(255, 255, 255));&quot;&gt;Create,View,Update,Delete&lt;/span&gt;&lt;/div&gt;&lt;div&gt;Comment-Post&lt;span style=&quot;background-color: transparent; color: light-dark(rgb(0, 0, 0), rgb(255, 255, 255));&quot;&gt;,View,Update,Delete&lt;/span&gt;&lt;/div&gt;&lt;div&gt;&lt;br&gt;&lt;/div&gt;" style="text;html=1;align=center;verticalAlign=middle;resizable=0;points=[];autosize=1;strokeColor=none;fillColor=none;fontSize=16;" vertex="1" parent="WIyWlLk6GJQsqaUBKTNV-1">
          <mxGeometry x="505" y="30" width="340" height="110" as="geometry" />
        </mxCell>
        <mxCell id="08z71slbajwtwQ3pmAD7-57" value="Create User Profile" style="rounded=0;whiteSpace=wrap;html=1;fontSize=16;" vertex="1" parent="WIyWlLk6GJQsqaUBKTNV-1">
          <mxGeometry x="-60" y="440" width="120" height="40" as="geometry" />
        </mxCell>
        <mxCell id="08z71slbajwtwQ3pmAD7-58" value="View User Profile" style="rounded=0;whiteSpace=wrap;html=1;fontSize=16;" vertex="1" parent="WIyWlLk6GJQsqaUBKTNV-1">
          <mxGeometry x="-60" y="490" width="120" height="40" as="geometry" />
        </mxCell>
        <mxCell id="08z71slbajwtwQ3pmAD7-59" value="Update Own User Profile" style="rounded=0;whiteSpace=wrap;html=1;fontSize=16;" vertex="1" parent="WIyWlLk6GJQsqaUBKTNV-1">
          <mxGeometry x="-60" y="545" width="120" height="40" as="geometry" />
        </mxCell>
        <mxCell id="08z71slbajwtwQ3pmAD7-60" value="Delete O&lt;span style=&quot;background-color: transparent; color: light-dark(rgb(0, 0, 0), rgb(255, 255, 255));&quot;&gt;wn User Profile&lt;/span&gt;" style="rounded=0;whiteSpace=wrap;html=1;fontSize=16;" vertex="1" parent="WIyWlLk6GJQsqaUBKTNV-1">
          <mxGeometry x="-60" y="600" width="120" height="40" as="geometry" />
        </mxCell>
        <mxCell id="08z71slbajwtwQ3pmAD7-69" value="Listen Music" style="rounded=0;whiteSpace=wrap;html=1;fontSize=16;" vertex="1" parent="WIyWlLk6GJQsqaUBKTNV-1">
          <mxGeometry x="100" y="440" width="120" height="40" as="geometry" />
        </mxCell>
        <mxCell id="08z71slbajwtwQ3pmAD7-70" value="Like Music" style="rounded=0;whiteSpace=wrap;html=1;fontSize=16;" vertex="1" parent="WIyWlLk6GJQsqaUBKTNV-1">
          <mxGeometry x="100" y="490" width="120" height="40" as="geometry" />
        </mxCell>
        <mxCell id="08z71slbajwtwQ3pmAD7-71" value="Unlike Music" style="rounded=0;whiteSpace=wrap;html=1;fontSize=16;" vertex="1" parent="WIyWlLk6GJQsqaUBKTNV-1">
          <mxGeometry x="100" y="545" width="120" height="40" as="geometry" />
        </mxCell>
        <mxCell id="08z71slbajwtwQ3pmAD7-72" value="Create Playlists" style="rounded=0;whiteSpace=wrap;html=1;fontSize=16;" vertex="1" parent="WIyWlLk6GJQsqaUBKTNV-1">
          <mxGeometry x="-60" y="650" width="120" height="40" as="geometry" />
        </mxCell>
        <mxCell id="08z71slbajwtwQ3pmAD7-73" value="View Playlists" style="rounded=0;whiteSpace=wrap;html=1;fontSize=16;" vertex="1" parent="WIyWlLk6GJQsqaUBKTNV-1">
          <mxGeometry x="-60" y="750" width="120" height="40" as="geometry" />
        </mxCell>
        <mxCell id="08z71slbajwtwQ3pmAD7-74" value="Update Own Playlists" style="rounded=0;whiteSpace=wrap;html=1;fontSize=16;" vertex="1" parent="WIyWlLk6GJQsqaUBKTNV-1">
          <mxGeometry x="-60" y="700" width="120" height="40" as="geometry" />
        </mxCell>
        <mxCell id="08z71slbajwtwQ3pmAD7-75" value="Delete O&lt;span style=&quot;background-color: transparent; color: light-dark(rgb(0, 0, 0), rgb(255, 255, 255));&quot;&gt;wn Playlists&lt;/span&gt;" style="rounded=0;whiteSpace=wrap;html=1;fontSize=16;" vertex="1" parent="WIyWlLk6GJQsqaUBKTNV-1">
          <mxGeometry x="-60" y="800" width="120" height="40" as="geometry" />
        </mxCell>
        <mxCell id="08z71slbajwtwQ3pmAD7-81" value="Post Comment" style="rounded=0;whiteSpace=wrap;html=1;fontSize=16;" vertex="1" parent="WIyWlLk6GJQsqaUBKTNV-1">
          <mxGeometry x="100" y="600" width="120" height="40" as="geometry" />
        </mxCell>
        <mxCell id="08z71slbajwtwQ3pmAD7-82" value="View Comment" style="rounded=0;whiteSpace=wrap;html=1;fontSize=16;" vertex="1" parent="WIyWlLk6GJQsqaUBKTNV-1">
          <mxGeometry x="100" y="650" width="120" height="40" as="geometry" />
        </mxCell>
        <mxCell id="08z71slbajwtwQ3pmAD7-83" value="Update Own Comment" style="rounded=0;whiteSpace=wrap;html=1;fontSize=16;" vertex="1" parent="WIyWlLk6GJQsqaUBKTNV-1">
          <mxGeometry x="100" y="700" width="120" height="40" as="geometry" />
        </mxCell>
        <mxCell id="08z71slbajwtwQ3pmAD7-84" value="Delete Own Comment" style="rounded=0;whiteSpace=wrap;html=1;fontSize=16;" vertex="1" parent="WIyWlLk6GJQsqaUBKTNV-1">
          <mxGeometry x="100" y="750" width="120" height="40" as="geometry" />
        </mxCell>
        <mxCell id="08z71slbajwtwQ3pmAD7-86" value="Create User Profile" style="rounded=0;whiteSpace=wrap;html=1;fontSize=16;" vertex="1" parent="WIyWlLk6GJQsqaUBKTNV-1">
          <mxGeometry x="280" y="440" width="120" height="40" as="geometry" />
        </mxCell>
        <mxCell id="08z71slbajwtwQ3pmAD7-87" value="View User Profile" style="rounded=0;whiteSpace=wrap;html=1;fontSize=16;" vertex="1" parent="WIyWlLk6GJQsqaUBKTNV-1">
          <mxGeometry x="280" y="490" width="120" height="40" as="geometry" />
        </mxCell>
        <mxCell id="08z71slbajwtwQ3pmAD7-88" value="Update Own User Profile" style="rounded=0;whiteSpace=wrap;html=1;fontSize=16;" vertex="1" parent="WIyWlLk6GJQsqaUBKTNV-1">
          <mxGeometry x="280" y="545" width="120" height="40" as="geometry" />
        </mxCell>
        <mxCell id="08z71slbajwtwQ3pmAD7-89" value="Delete O&lt;span style=&quot;background-color: transparent; color: light-dark(rgb(0, 0, 0), rgb(255, 255, 255));&quot;&gt;wn User Profile&lt;/span&gt;" style="rounded=0;whiteSpace=wrap;html=1;fontSize=16;" vertex="1" parent="WIyWlLk6GJQsqaUBKTNV-1">
          <mxGeometry x="280" y="600" width="120" height="40" as="geometry" />
        </mxCell>
        <mxCell id="08z71slbajwtwQ3pmAD7-90" value="Create Playlists" style="rounded=0;whiteSpace=wrap;html=1;fontSize=16;" vertex="1" parent="WIyWlLk6GJQsqaUBKTNV-1">
          <mxGeometry x="280" y="650" width="120" height="40" as="geometry" />
        </mxCell>
        <mxCell id="08z71slbajwtwQ3pmAD7-91" value="View Playlists" style="rounded=0;whiteSpace=wrap;html=1;fontSize=16;" vertex="1" parent="WIyWlLk6GJQsqaUBKTNV-1">
          <mxGeometry x="280" y="750" width="120" height="40" as="geometry" />
        </mxCell>
        <mxCell id="08z71slbajwtwQ3pmAD7-92" value="Update Own Playlists" style="rounded=0;whiteSpace=wrap;html=1;fontSize=16;" vertex="1" parent="WIyWlLk6GJQsqaUBKTNV-1">
          <mxGeometry x="280" y="700" width="120" height="40" as="geometry" />
        </mxCell>
        <mxCell id="08z71slbajwtwQ3pmAD7-93" value="Delete O&lt;span style=&quot;background-color: transparent; color: light-dark(rgb(0, 0, 0), rgb(255, 255, 255));&quot;&gt;wn Playlists&lt;/span&gt;" style="rounded=0;whiteSpace=wrap;html=1;fontSize=16;" vertex="1" parent="WIyWlLk6GJQsqaUBKTNV-1">
          <mxGeometry x="280" y="800" width="120" height="40" as="geometry" />
        </mxCell>
        <mxCell id="08z71slbajwtwQ3pmAD7-94" value="Listen Music" style="rounded=0;whiteSpace=wrap;html=1;fontSize=16;" vertex="1" parent="WIyWlLk6GJQsqaUBKTNV-1">
          <mxGeometry x="440" y="440" width="120" height="40" as="geometry" />
        </mxCell>
        <mxCell id="08z71slbajwtwQ3pmAD7-95" value="Like Music" style="rounded=0;whiteSpace=wrap;html=1;fontSize=16;" vertex="1" parent="WIyWlLk6GJQsqaUBKTNV-1">
          <mxGeometry x="440" y="650" width="120" height="40" as="geometry" />
        </mxCell>
        <mxCell id="08z71slbajwtwQ3pmAD7-96" value="Unlike Music" style="rounded=0;whiteSpace=wrap;html=1;fontSize=16;" vertex="1" parent="WIyWlLk6GJQsqaUBKTNV-1">
          <mxGeometry x="440" y="700" width="120" height="40" as="geometry" />
        </mxCell>
        <mxCell id="08z71slbajwtwQ3pmAD7-97" value="Post Comment" style="rounded=0;whiteSpace=wrap;html=1;fontSize=16;" vertex="1" parent="WIyWlLk6GJQsqaUBKTNV-1">
          <mxGeometry x="440" y="750" width="120" height="40" as="geometry" />
        </mxCell>
        <mxCell id="08z71slbajwtwQ3pmAD7-98" value="View Comment" style="rounded=0;whiteSpace=wrap;html=1;fontSize=16;" vertex="1" parent="WIyWlLk6GJQsqaUBKTNV-1">
          <mxGeometry x="440" y="800" width="120" height="40" as="geometry" />
        </mxCell>
        <mxCell id="08z71slbajwtwQ3pmAD7-99" value="Update Own Comment" style="rounded=0;whiteSpace=wrap;html=1;fontSize=16;" vertex="1" parent="WIyWlLk6GJQsqaUBKTNV-1">
          <mxGeometry x="280" y="850" width="120" height="40" as="geometry" />
        </mxCell>
        <mxCell id="08z71slbajwtwQ3pmAD7-100" value="Delete Own Comment" style="rounded=0;whiteSpace=wrap;html=1;fontSize=16;" vertex="1" parent="WIyWlLk6GJQsqaUBKTNV-1">
          <mxGeometry x="440" y="850" width="120" height="40" as="geometry" />
        </mxCell>
        <mxCell id="08z71slbajwtwQ3pmAD7-101" value="Post Music" style="rounded=0;whiteSpace=wrap;html=1;fontSize=16;" vertex="1" parent="WIyWlLk6GJQsqaUBKTNV-1">
          <mxGeometry x="440" y="545" width="120" height="40" as="geometry" />
        </mxCell>
        <mxCell id="08z71slbajwtwQ3pmAD7-102" value="Update Music" style="rounded=0;whiteSpace=wrap;html=1;fontSize=16;" vertex="1" parent="WIyWlLk6GJQsqaUBKTNV-1">
          <mxGeometry x="440" y="490" width="120" height="40" as="geometry" />
        </mxCell>
        <mxCell id="08z71slbajwtwQ3pmAD7-103" value="Delete Music" style="rounded=0;whiteSpace=wrap;html=1;fontSize=16;" vertex="1" parent="WIyWlLk6GJQsqaUBKTNV-1">
          <mxGeometry x="440" y="600" width="120" height="40" as="geometry" />
        </mxCell>
        <mxCell id="08z71slbajwtwQ3pmAD7-104" value="Create User Profile" style="rounded=0;whiteSpace=wrap;html=1;fontSize=16;" vertex="1" parent="WIyWlLk6GJQsqaUBKTNV-1">
          <mxGeometry x="600" y="440" width="120" height="40" as="geometry" />
        </mxCell>
        <mxCell id="08z71slbajwtwQ3pmAD7-105" value="View User Profile" style="rounded=0;whiteSpace=wrap;html=1;fontSize=16;" vertex="1" parent="WIyWlLk6GJQsqaUBKTNV-1">
          <mxGeometry x="600" y="490" width="120" height="40" as="geometry" />
        </mxCell>
        <mxCell id="08z71slbajwtwQ3pmAD7-106" value="Update Own User Profile" style="rounded=0;whiteSpace=wrap;html=1;fontSize=16;" vertex="1" parent="WIyWlLk6GJQsqaUBKTNV-1">
          <mxGeometry x="600" y="545" width="120" height="40" as="geometry" />
        </mxCell>
        <mxCell id="08z71slbajwtwQ3pmAD7-107" value="Delete O&lt;span style=&quot;background-color: transparent; color: light-dark(rgb(0, 0, 0), rgb(255, 255, 255));&quot;&gt;wn User Profile&lt;/span&gt;" style="rounded=0;whiteSpace=wrap;html=1;fontSize=16;" vertex="1" parent="WIyWlLk6GJQsqaUBKTNV-1">
          <mxGeometry x="600" y="600" width="120" height="40" as="geometry" />
        </mxCell>
        <mxCell id="08z71slbajwtwQ3pmAD7-108" value="Create Playlists" style="rounded=0;whiteSpace=wrap;html=1;fontSize=16;" vertex="1" parent="WIyWlLk6GJQsqaUBKTNV-1">
          <mxGeometry x="600" y="650" width="120" height="40" as="geometry" />
        </mxCell>
        <mxCell id="08z71slbajwtwQ3pmAD7-109" value="View Playlists" style="rounded=0;whiteSpace=wrap;html=1;fontSize=16;" vertex="1" parent="WIyWlLk6GJQsqaUBKTNV-1">
          <mxGeometry x="600" y="750" width="120" height="40" as="geometry" />
        </mxCell>
        <mxCell id="08z71slbajwtwQ3pmAD7-110" value="Update Own Playlists" style="rounded=0;whiteSpace=wrap;html=1;fontSize=16;" vertex="1" parent="WIyWlLk6GJQsqaUBKTNV-1">
          <mxGeometry x="600" y="700" width="120" height="40" as="geometry" />
        </mxCell>
        <mxCell id="08z71slbajwtwQ3pmAD7-111" value="Delete&lt;span style=&quot;background-color: transparent; color: light-dark(rgb(0, 0, 0), rgb(255, 255, 255));&quot;&gt;&amp;nbsp;Playlists&lt;/span&gt;" style="rounded=0;whiteSpace=wrap;html=1;fontSize=16;" vertex="1" parent="WIyWlLk6GJQsqaUBKTNV-1">
          <mxGeometry x="600" y="800" width="120" height="40" as="geometry" />
        </mxCell>
        <mxCell id="08z71slbajwtwQ3pmAD7-112" value="Listen Music" style="rounded=0;whiteSpace=wrap;html=1;fontSize=16;" vertex="1" parent="WIyWlLk6GJQsqaUBKTNV-1">
          <mxGeometry x="760" y="440" width="120" height="40" as="geometry" />
        </mxCell>
        <mxCell id="08z71slbajwtwQ3pmAD7-113" value="Like Music" style="rounded=0;whiteSpace=wrap;html=1;fontSize=16;" vertex="1" parent="WIyWlLk6GJQsqaUBKTNV-1">
          <mxGeometry x="760" y="545" width="120" height="40" as="geometry" />
        </mxCell>
        <mxCell id="08z71slbajwtwQ3pmAD7-114" value="Unlike Music" style="rounded=0;whiteSpace=wrap;html=1;fontSize=16;" vertex="1" parent="WIyWlLk6GJQsqaUBKTNV-1">
          <mxGeometry x="760" y="600" width="120" height="40" as="geometry" />
        </mxCell>
        <mxCell id="08z71slbajwtwQ3pmAD7-115" value="Post Comment" style="rounded=0;whiteSpace=wrap;html=1;fontSize=16;" vertex="1" parent="WIyWlLk6GJQsqaUBKTNV-1">
          <mxGeometry x="760" y="650" width="120" height="40" as="geometry" />
        </mxCell>
        <mxCell id="08z71slbajwtwQ3pmAD7-116" value="View Comment" style="rounded=0;whiteSpace=wrap;html=1;fontSize=16;" vertex="1" parent="WIyWlLk6GJQsqaUBKTNV-1">
          <mxGeometry x="760" y="700" width="120" height="40" as="geometry" />
        </mxCell>
        <mxCell id="08z71slbajwtwQ3pmAD7-117" value="Update Own Comment" style="rounded=0;whiteSpace=wrap;html=1;fontSize=16;" vertex="1" parent="WIyWlLk6GJQsqaUBKTNV-1">
          <mxGeometry x="760" y="800" width="120" height="40" as="geometry" />
        </mxCell>
        <mxCell id="08z71slbajwtwQ3pmAD7-118" value="Delete Comment" style="rounded=0;whiteSpace=wrap;html=1;fontSize=16;" vertex="1" parent="WIyWlLk6GJQsqaUBKTNV-1">
          <mxGeometry x="760" y="750" width="120" height="40" as="geometry" />
        </mxCell>
        <mxCell id="08z71slbajwtwQ3pmAD7-121" value="Delete Music" style="rounded=0;whiteSpace=wrap;html=1;fontSize=16;" vertex="1" parent="WIyWlLk6GJQsqaUBKTNV-1">
          <mxGeometry x="760" y="490" width="120" height="40" as="geometry" />
        </mxCell>
        <mxCell id="08z71slbajwtwQ3pmAD7-124" value="" style="rounded=0;whiteSpace=wrap;html=1;strokeWidth=0;" vertex="1" parent="WIyWlLk6GJQsqaUBKTNV-1">
          <mxGeometry x="510" y="30" width="360" height="90" as="geometry" />
        </mxCell>
        <mxCell id="08z71slbajwtwQ3pmAD7-125" style="edgeStyle=orthogonalEdgeStyle;rounded=0;orthogonalLoop=1;jettySize=auto;html=1;entryX=0.5;entryY=0;entryDx=0;entryDy=0;" edge="1" parent="WIyWlLk6GJQsqaUBKTNV-1" source="yEGrShc0nkDmfcy5XUrJ-3" target="yEGrShc0nkDmfcy5XUrJ-5">
          <mxGeometry relative="1" as="geometry">
            <Array as="points">
              <mxPoint x="90" y="160" />
            </Array>
          </mxGeometry>
        </mxCell>
        <mxCell id="08z71slbajwtwQ3pmAD7-126" style="edgeStyle=orthogonalEdgeStyle;rounded=0;orthogonalLoop=1;jettySize=auto;html=1;entryX=0.5;entryY=0;entryDx=0;entryDy=0;" edge="1" parent="WIyWlLk6GJQsqaUBKTNV-1" source="yEGrShc0nkDmfcy5XUrJ-3" target="yEGrShc0nkDmfcy5XUrJ-6">
          <mxGeometry relative="1" as="geometry" />
        </mxCell>
        <mxCell id="08z71slbajwtwQ3pmAD7-131" value="" style="endArrow=classic;html=1;rounded=0;entryX=1;entryY=0.5;entryDx=0;entryDy=0;" edge="1" parent="WIyWlLk6GJQsqaUBKTNV-1" target="08z71slbajwtwQ3pmAD7-57">
          <mxGeometry width="50" height="50" relative="1" as="geometry">
            <mxPoint x="80" y="460" as="sourcePoint" />
            <mxPoint x="220" y="380" as="targetPoint" />
          </mxGeometry>
        </mxCell>
        <mxCell id="08z71slbajwtwQ3pmAD7-132" value="" style="endArrow=classic;html=1;rounded=0;entryX=0;entryY=0.5;entryDx=0;entryDy=0;" edge="1" parent="WIyWlLk6GJQsqaUBKTNV-1" target="08z71slbajwtwQ3pmAD7-69">
          <mxGeometry width="50" height="50" relative="1" as="geometry">
            <mxPoint x="80" y="459.89" as="sourcePoint" />
            <mxPoint x="100" y="459.89" as="targetPoint" />
          </mxGeometry>
        </mxCell>
        <mxCell id="08z71slbajwtwQ3pmAD7-133" value="" style="endArrow=classic;html=1;rounded=0;entryX=1;entryY=0.5;entryDx=0;entryDy=0;" edge="1" parent="WIyWlLk6GJQsqaUBKTNV-1" target="08z71slbajwtwQ3pmAD7-58">
          <mxGeometry width="50" height="50" relative="1" as="geometry">
            <mxPoint x="80" y="510" as="sourcePoint" />
            <mxPoint x="70" y="470" as="targetPoint" />
          </mxGeometry>
        </mxCell>
        <mxCell id="08z71slbajwtwQ3pmAD7-134" value="" style="endArrow=classic;html=1;rounded=0;entryX=0;entryY=0.5;entryDx=0;entryDy=0;" edge="1" parent="WIyWlLk6GJQsqaUBKTNV-1" target="08z71slbajwtwQ3pmAD7-70">
          <mxGeometry width="50" height="50" relative="1" as="geometry">
            <mxPoint x="80" y="510" as="sourcePoint" />
            <mxPoint x="110" y="470" as="targetPoint" />
          </mxGeometry>
        </mxCell>
        <mxCell id="08z71slbajwtwQ3pmAD7-135" value="" style="endArrow=classic;html=1;rounded=0;entryX=1;entryY=0.5;entryDx=0;entryDy=0;" edge="1" parent="WIyWlLk6GJQsqaUBKTNV-1" target="08z71slbajwtwQ3pmAD7-59">
          <mxGeometry width="50" height="50" relative="1" as="geometry">
            <mxPoint x="80" y="564.81" as="sourcePoint" />
            <mxPoint x="60" y="565" as="targetPoint" />
          </mxGeometry>
        </mxCell>
        <mxCell id="08z71slbajwtwQ3pmAD7-136" value="" style="endArrow=classic;html=1;rounded=0;entryX=0;entryY=0.5;entryDx=0;entryDy=0;" edge="1" parent="WIyWlLk6GJQsqaUBKTNV-1" target="08z71slbajwtwQ3pmAD7-71">
          <mxGeometry width="50" height="50" relative="1" as="geometry">
            <mxPoint x="80" y="565" as="sourcePoint" />
            <mxPoint x="120" y="480" as="targetPoint" />
          </mxGeometry>
        </mxCell>
        <mxCell id="08z71slbajwtwQ3pmAD7-137" value="" style="endArrow=classic;html=1;rounded=0;entryX=1;entryY=0.5;entryDx=0;entryDy=0;" edge="1" parent="WIyWlLk6GJQsqaUBKTNV-1" target="08z71slbajwtwQ3pmAD7-60">
          <mxGeometry width="50" height="50" relative="1" as="geometry">
            <mxPoint x="80" y="620" as="sourcePoint" />
            <mxPoint x="70" y="575" as="targetPoint" />
          </mxGeometry>
        </mxCell>
        <mxCell id="08z71slbajwtwQ3pmAD7-138" value="" style="endArrow=classic;html=1;rounded=0;entryX=0;entryY=0.5;entryDx=0;entryDy=0;" edge="1" parent="WIyWlLk6GJQsqaUBKTNV-1" target="08z71slbajwtwQ3pmAD7-81">
          <mxGeometry width="50" height="50" relative="1" as="geometry">
            <mxPoint x="80" y="620" as="sourcePoint" />
            <mxPoint x="110" y="575" as="targetPoint" />
          </mxGeometry>
        </mxCell>
        <mxCell id="08z71slbajwtwQ3pmAD7-139" value="" style="endArrow=classic;html=1;rounded=0;entryX=1;entryY=0.5;entryDx=0;entryDy=0;" edge="1" parent="WIyWlLk6GJQsqaUBKTNV-1" target="08z71slbajwtwQ3pmAD7-72">
          <mxGeometry width="50" height="50" relative="1" as="geometry">
            <mxPoint x="80" y="669.81" as="sourcePoint" />
            <mxPoint x="60" y="670" as="targetPoint" />
          </mxGeometry>
        </mxCell>
        <mxCell id="08z71slbajwtwQ3pmAD7-140" value="" style="endArrow=classic;html=1;rounded=0;entryX=0;entryY=0.5;entryDx=0;entryDy=0;" edge="1" parent="WIyWlLk6GJQsqaUBKTNV-1" target="08z71slbajwtwQ3pmAD7-82">
          <mxGeometry width="50" height="50" relative="1" as="geometry">
            <mxPoint x="80" y="670" as="sourcePoint" />
            <mxPoint x="100" y="670" as="targetPoint" />
          </mxGeometry>
        </mxCell>
        <mxCell id="08z71slbajwtwQ3pmAD7-141" value="" style="endArrow=classic;html=1;rounded=0;entryX=1;entryY=0.5;entryDx=0;entryDy=0;" edge="1" parent="WIyWlLk6GJQsqaUBKTNV-1">
          <mxGeometry width="50" height="50" relative="1" as="geometry">
            <mxPoint x="80" y="719.7299999999999" as="sourcePoint" />
            <mxPoint x="60" y="719.92" as="targetPoint" />
          </mxGeometry>
        </mxCell>
        <mxCell id="08z71slbajwtwQ3pmAD7-142" value="" style="endArrow=classic;html=1;rounded=0;entryX=0;entryY=0.5;entryDx=0;entryDy=0;" edge="1" parent="WIyWlLk6GJQsqaUBKTNV-1">
          <mxGeometry width="50" height="50" relative="1" as="geometry">
            <mxPoint x="80" y="719.92" as="sourcePoint" />
            <mxPoint x="100" y="719.92" as="targetPoint" />
          </mxGeometry>
        </mxCell>
        <mxCell id="08z71slbajwtwQ3pmAD7-143" value="" style="endArrow=classic;html=1;rounded=0;entryX=1;entryY=0.5;entryDx=0;entryDy=0;" edge="1" parent="WIyWlLk6GJQsqaUBKTNV-1">
          <mxGeometry width="50" height="50" relative="1" as="geometry">
            <mxPoint x="80" y="769.7299999999999" as="sourcePoint" />
            <mxPoint x="60" y="769.92" as="targetPoint" />
          </mxGeometry>
        </mxCell>
        <mxCell id="08z71slbajwtwQ3pmAD7-144" value="" style="endArrow=classic;html=1;rounded=0;entryX=0;entryY=0.5;entryDx=0;entryDy=0;" edge="1" parent="WIyWlLk6GJQsqaUBKTNV-1">
          <mxGeometry width="50" height="50" relative="1" as="geometry">
            <mxPoint x="80" y="769.92" as="sourcePoint" />
            <mxPoint x="100" y="769.92" as="targetPoint" />
          </mxGeometry>
        </mxCell>
        <mxCell id="08z71slbajwtwQ3pmAD7-145" value="" style="endArrow=classic;html=1;rounded=0;entryX=1;entryY=0.5;entryDx=0;entryDy=0;" edge="1" parent="WIyWlLk6GJQsqaUBKTNV-1">
          <mxGeometry width="50" height="50" relative="1" as="geometry">
            <mxPoint x="80" y="819.7299999999999" as="sourcePoint" />
            <mxPoint x="60" y="819.92" as="targetPoint" />
          </mxGeometry>
        </mxCell>
        <mxCell id="08z71slbajwtwQ3pmAD7-147" value="" style="endArrow=classic;html=1;rounded=0;entryX=1;entryY=0.5;entryDx=0;entryDy=0;" edge="1" parent="WIyWlLk6GJQsqaUBKTNV-1">
          <mxGeometry width="50" height="50" relative="1" as="geometry">
            <mxPoint x="420" y="459.99999999999994" as="sourcePoint" />
            <mxPoint x="400" y="460.19" as="targetPoint" />
          </mxGeometry>
        </mxCell>
        <mxCell id="08z71slbajwtwQ3pmAD7-148" value="" style="endArrow=classic;html=1;rounded=0;entryX=0;entryY=0.5;entryDx=0;entryDy=0;" edge="1" parent="WIyWlLk6GJQsqaUBKTNV-1">
          <mxGeometry width="50" height="50" relative="1" as="geometry">
            <mxPoint x="420" y="460.19" as="sourcePoint" />
            <mxPoint x="440" y="460.19" as="targetPoint" />
          </mxGeometry>
        </mxCell>
        <mxCell id="08z71slbajwtwQ3pmAD7-152" value="" style="endArrow=classic;html=1;rounded=0;entryX=1;entryY=0.5;entryDx=0;entryDy=0;" edge="1" parent="WIyWlLk6GJQsqaUBKTNV-1">
          <mxGeometry width="50" height="50" relative="1" as="geometry">
            <mxPoint x="420" y="509.76" as="sourcePoint" />
            <mxPoint x="400" y="509.95000000000005" as="targetPoint" />
          </mxGeometry>
        </mxCell>
        <mxCell id="08z71slbajwtwQ3pmAD7-153" value="" style="endArrow=classic;html=1;rounded=0;entryX=0;entryY=0.5;entryDx=0;entryDy=0;" edge="1" parent="WIyWlLk6GJQsqaUBKTNV-1">
          <mxGeometry width="50" height="50" relative="1" as="geometry">
            <mxPoint x="420" y="509.95000000000005" as="sourcePoint" />
            <mxPoint x="440" y="509.95000000000005" as="targetPoint" />
          </mxGeometry>
        </mxCell>
        <mxCell id="08z71slbajwtwQ3pmAD7-156" value="" style="endArrow=classic;html=1;rounded=0;entryX=1;entryY=0.5;entryDx=0;entryDy=0;" edge="1" parent="WIyWlLk6GJQsqaUBKTNV-1">
          <mxGeometry width="50" height="50" relative="1" as="geometry">
            <mxPoint x="420" y="564.76" as="sourcePoint" />
            <mxPoint x="400" y="564.95" as="targetPoint" />
          </mxGeometry>
        </mxCell>
        <mxCell id="08z71slbajwtwQ3pmAD7-157" value="" style="endArrow=classic;html=1;rounded=0;entryX=0;entryY=0.5;entryDx=0;entryDy=0;" edge="1" parent="WIyWlLk6GJQsqaUBKTNV-1">
          <mxGeometry width="50" height="50" relative="1" as="geometry">
            <mxPoint x="420" y="564.95" as="sourcePoint" />
            <mxPoint x="440" y="564.95" as="targetPoint" />
          </mxGeometry>
        </mxCell>
        <mxCell id="08z71slbajwtwQ3pmAD7-158" value="" style="endArrow=classic;html=1;rounded=0;entryX=1;entryY=0.5;entryDx=0;entryDy=0;" edge="1" parent="WIyWlLk6GJQsqaUBKTNV-1">
          <mxGeometry width="50" height="50" relative="1" as="geometry">
            <mxPoint x="420" y="619.86" as="sourcePoint" />
            <mxPoint x="400" y="620.0500000000001" as="targetPoint" />
          </mxGeometry>
        </mxCell>
        <mxCell id="08z71slbajwtwQ3pmAD7-159" value="" style="endArrow=classic;html=1;rounded=0;entryX=0;entryY=0.5;entryDx=0;entryDy=0;" edge="1" parent="WIyWlLk6GJQsqaUBKTNV-1">
          <mxGeometry width="50" height="50" relative="1" as="geometry">
            <mxPoint x="420" y="619.86" as="sourcePoint" />
            <mxPoint x="440" y="619.86" as="targetPoint" />
          </mxGeometry>
        </mxCell>
        <mxCell id="08z71slbajwtwQ3pmAD7-160" value="" style="endArrow=classic;html=1;rounded=0;entryX=1;entryY=0.5;entryDx=0;entryDy=0;" edge="1" parent="WIyWlLk6GJQsqaUBKTNV-1">
          <mxGeometry width="50" height="50" relative="1" as="geometry">
            <mxPoint x="420" y="669.76" as="sourcePoint" />
            <mxPoint x="400" y="669.95" as="targetPoint" />
          </mxGeometry>
        </mxCell>
        <mxCell id="08z71slbajwtwQ3pmAD7-161" value="" style="endArrow=classic;html=1;rounded=0;entryX=0;entryY=0.5;entryDx=0;entryDy=0;" edge="1" parent="WIyWlLk6GJQsqaUBKTNV-1">
          <mxGeometry width="50" height="50" relative="1" as="geometry">
            <mxPoint x="420" y="669.95" as="sourcePoint" />
            <mxPoint x="440" y="669.95" as="targetPoint" />
          </mxGeometry>
        </mxCell>
        <mxCell id="08z71slbajwtwQ3pmAD7-162" value="" style="endArrow=classic;html=1;rounded=0;entryX=1;entryY=0.5;entryDx=0;entryDy=0;" edge="1" parent="WIyWlLk6GJQsqaUBKTNV-1">
          <mxGeometry width="50" height="50" relative="1" as="geometry">
            <mxPoint x="420" y="719.76" as="sourcePoint" />
            <mxPoint x="400" y="719.95" as="targetPoint" />
          </mxGeometry>
        </mxCell>
        <mxCell id="08z71slbajwtwQ3pmAD7-163" value="" style="endArrow=classic;html=1;rounded=0;entryX=0;entryY=0.5;entryDx=0;entryDy=0;" edge="1" parent="WIyWlLk6GJQsqaUBKTNV-1">
          <mxGeometry width="50" height="50" relative="1" as="geometry">
            <mxPoint x="420" y="719.95" as="sourcePoint" />
            <mxPoint x="440" y="719.95" as="targetPoint" />
          </mxGeometry>
        </mxCell>
        <mxCell id="08z71slbajwtwQ3pmAD7-164" value="" style="endArrow=classic;html=1;rounded=0;entryX=1;entryY=0.5;entryDx=0;entryDy=0;" edge="1" parent="WIyWlLk6GJQsqaUBKTNV-1">
          <mxGeometry width="50" height="50" relative="1" as="geometry">
            <mxPoint x="420" y="769.7" as="sourcePoint" />
            <mxPoint x="400" y="769.8900000000001" as="targetPoint" />
          </mxGeometry>
        </mxCell>
        <mxCell id="08z71slbajwtwQ3pmAD7-165" value="" style="endArrow=classic;html=1;rounded=0;entryX=0;entryY=0.5;entryDx=0;entryDy=0;" edge="1" parent="WIyWlLk6GJQsqaUBKTNV-1">
          <mxGeometry width="50" height="50" relative="1" as="geometry">
            <mxPoint x="420" y="769.8900000000001" as="sourcePoint" />
            <mxPoint x="440" y="769.8900000000001" as="targetPoint" />
          </mxGeometry>
        </mxCell>
        <mxCell id="08z71slbajwtwQ3pmAD7-166" value="" style="endArrow=classic;html=1;rounded=0;entryX=1;entryY=0.5;entryDx=0;entryDy=0;" edge="1" parent="WIyWlLk6GJQsqaUBKTNV-1">
          <mxGeometry width="50" height="50" relative="1" as="geometry">
            <mxPoint x="420" y="869.7" as="sourcePoint" />
            <mxPoint x="400" y="869.8900000000001" as="targetPoint" />
          </mxGeometry>
        </mxCell>
        <mxCell id="08z71slbajwtwQ3pmAD7-167" value="" style="endArrow=classic;html=1;rounded=0;entryX=0;entryY=0.5;entryDx=0;entryDy=0;" edge="1" parent="WIyWlLk6GJQsqaUBKTNV-1">
          <mxGeometry width="50" height="50" relative="1" as="geometry">
            <mxPoint x="420" y="869.8900000000001" as="sourcePoint" />
            <mxPoint x="440" y="869.8900000000001" as="targetPoint" />
          </mxGeometry>
        </mxCell>
        <mxCell id="08z71slbajwtwQ3pmAD7-168" value="" style="endArrow=classic;html=1;rounded=0;entryX=1;entryY=0.5;entryDx=0;entryDy=0;" edge="1" parent="WIyWlLk6GJQsqaUBKTNV-1">
          <mxGeometry width="50" height="50" relative="1" as="geometry">
            <mxPoint x="420" y="819.7" as="sourcePoint" />
            <mxPoint x="400" y="819.8900000000001" as="targetPoint" />
          </mxGeometry>
        </mxCell>
        <mxCell id="08z71slbajwtwQ3pmAD7-169" value="" style="endArrow=classic;html=1;rounded=0;entryX=0;entryY=0.5;entryDx=0;entryDy=0;" edge="1" parent="WIyWlLk6GJQsqaUBKTNV-1">
          <mxGeometry width="50" height="50" relative="1" as="geometry">
            <mxPoint x="420" y="819.8900000000001" as="sourcePoint" />
            <mxPoint x="440" y="819.8900000000001" as="targetPoint" />
          </mxGeometry>
        </mxCell>
        <mxCell id="08z71slbajwtwQ3pmAD7-176" value="" style="endArrow=classic;html=1;rounded=0;entryX=1;entryY=0.5;entryDx=0;entryDy=0;" edge="1" parent="WIyWlLk6GJQsqaUBKTNV-1">
          <mxGeometry width="50" height="50" relative="1" as="geometry">
            <mxPoint x="740" y="459.7699999999999" as="sourcePoint" />
            <mxPoint x="720" y="459.96" as="targetPoint" />
          </mxGeometry>
        </mxCell>
        <mxCell id="08z71slbajwtwQ3pmAD7-177" value="" style="endArrow=classic;html=1;rounded=0;entryX=0;entryY=0.5;entryDx=0;entryDy=0;" edge="1" parent="WIyWlLk6GJQsqaUBKTNV-1">
          <mxGeometry width="50" height="50" relative="1" as="geometry">
            <mxPoint x="740" y="459.77" as="sourcePoint" />
            <mxPoint x="760" y="459.77" as="targetPoint" />
          </mxGeometry>
        </mxCell>
        <mxCell id="08z71slbajwtwQ3pmAD7-181" value="" style="endArrow=classic;html=1;rounded=0;entryX=1;entryY=0.5;entryDx=0;entryDy=0;" edge="1" parent="WIyWlLk6GJQsqaUBKTNV-1">
          <mxGeometry width="50" height="50" relative="1" as="geometry">
            <mxPoint x="740" y="509.8999999999999" as="sourcePoint" />
            <mxPoint x="720" y="510.09" as="targetPoint" />
          </mxGeometry>
        </mxCell>
        <mxCell id="08z71slbajwtwQ3pmAD7-182" value="" style="endArrow=classic;html=1;rounded=0;entryX=0;entryY=0.5;entryDx=0;entryDy=0;" edge="1" parent="WIyWlLk6GJQsqaUBKTNV-1">
          <mxGeometry width="50" height="50" relative="1" as="geometry">
            <mxPoint x="740" y="509.9" as="sourcePoint" />
            <mxPoint x="760" y="509.9" as="targetPoint" />
          </mxGeometry>
        </mxCell>
        <mxCell id="08z71slbajwtwQ3pmAD7-183" value="" style="endArrow=classic;html=1;rounded=0;entryX=1;entryY=0.5;entryDx=0;entryDy=0;" edge="1" parent="WIyWlLk6GJQsqaUBKTNV-1">
          <mxGeometry width="50" height="50" relative="1" as="geometry">
            <mxPoint x="740" y="564.8499999999999" as="sourcePoint" />
            <mxPoint x="720" y="565.04" as="targetPoint" />
          </mxGeometry>
        </mxCell>
        <mxCell id="08z71slbajwtwQ3pmAD7-184" value="" style="endArrow=classic;html=1;rounded=0;entryX=0;entryY=0.5;entryDx=0;entryDy=0;" edge="1" parent="WIyWlLk6GJQsqaUBKTNV-1">
          <mxGeometry width="50" height="50" relative="1" as="geometry">
            <mxPoint x="740" y="564.85" as="sourcePoint" />
            <mxPoint x="760" y="564.85" as="targetPoint" />
          </mxGeometry>
        </mxCell>
        <mxCell id="08z71slbajwtwQ3pmAD7-185" value="" style="endArrow=classic;html=1;rounded=0;entryX=1;entryY=0.5;entryDx=0;entryDy=0;" edge="1" parent="WIyWlLk6GJQsqaUBKTNV-1">
          <mxGeometry width="50" height="50" relative="1" as="geometry">
            <mxPoint x="740" y="619.8499999999999" as="sourcePoint" />
            <mxPoint x="720" y="620.04" as="targetPoint" />
          </mxGeometry>
        </mxCell>
        <mxCell id="08z71slbajwtwQ3pmAD7-186" value="" style="endArrow=classic;html=1;rounded=0;entryX=0;entryY=0.5;entryDx=0;entryDy=0;" edge="1" parent="WIyWlLk6GJQsqaUBKTNV-1">
          <mxGeometry width="50" height="50" relative="1" as="geometry">
            <mxPoint x="740" y="619.85" as="sourcePoint" />
            <mxPoint x="760" y="619.85" as="targetPoint" />
          </mxGeometry>
        </mxCell>
        <mxCell id="08z71slbajwtwQ3pmAD7-187" value="" style="endArrow=classic;html=1;rounded=0;entryX=1;entryY=0.5;entryDx=0;entryDy=0;" edge="1" parent="WIyWlLk6GJQsqaUBKTNV-1">
          <mxGeometry width="50" height="50" relative="1" as="geometry">
            <mxPoint x="740" y="669.8499999999999" as="sourcePoint" />
            <mxPoint x="720" y="670.04" as="targetPoint" />
          </mxGeometry>
        </mxCell>
        <mxCell id="08z71slbajwtwQ3pmAD7-188" value="" style="endArrow=classic;html=1;rounded=0;entryX=0;entryY=0.5;entryDx=0;entryDy=0;" edge="1" parent="WIyWlLk6GJQsqaUBKTNV-1">
          <mxGeometry width="50" height="50" relative="1" as="geometry">
            <mxPoint x="740" y="669.85" as="sourcePoint" />
            <mxPoint x="760" y="669.85" as="targetPoint" />
          </mxGeometry>
        </mxCell>
        <mxCell id="08z71slbajwtwQ3pmAD7-189" value="" style="endArrow=classic;html=1;rounded=0;entryX=1;entryY=0.5;entryDx=0;entryDy=0;" edge="1" parent="WIyWlLk6GJQsqaUBKTNV-1">
          <mxGeometry width="50" height="50" relative="1" as="geometry">
            <mxPoint x="740" y="719.8499999999999" as="sourcePoint" />
            <mxPoint x="720" y="720.04" as="targetPoint" />
          </mxGeometry>
        </mxCell>
        <mxCell id="08z71slbajwtwQ3pmAD7-190" value="" style="endArrow=classic;html=1;rounded=0;entryX=0;entryY=0.5;entryDx=0;entryDy=0;" edge="1" parent="WIyWlLk6GJQsqaUBKTNV-1">
          <mxGeometry width="50" height="50" relative="1" as="geometry">
            <mxPoint x="740" y="719.85" as="sourcePoint" />
            <mxPoint x="760" y="719.85" as="targetPoint" />
          </mxGeometry>
        </mxCell>
        <mxCell id="08z71slbajwtwQ3pmAD7-191" value="" style="endArrow=classic;html=1;rounded=0;entryX=1;entryY=0.5;entryDx=0;entryDy=0;" edge="1" parent="WIyWlLk6GJQsqaUBKTNV-1">
          <mxGeometry width="50" height="50" relative="1" as="geometry">
            <mxPoint x="740" y="769.8499999999999" as="sourcePoint" />
            <mxPoint x="720" y="770.04" as="targetPoint" />
          </mxGeometry>
        </mxCell>
        <mxCell id="08z71slbajwtwQ3pmAD7-192" value="" style="endArrow=classic;html=1;rounded=0;entryX=0;entryY=0.5;entryDx=0;entryDy=0;" edge="1" parent="WIyWlLk6GJQsqaUBKTNV-1">
          <mxGeometry width="50" height="50" relative="1" as="geometry">
            <mxPoint x="740" y="769.85" as="sourcePoint" />
            <mxPoint x="760" y="769.85" as="targetPoint" />
          </mxGeometry>
        </mxCell>
        <mxCell id="08z71slbajwtwQ3pmAD7-193" value="" style="endArrow=classic;html=1;rounded=0;entryX=1;entryY=0.5;entryDx=0;entryDy=0;" edge="1" parent="WIyWlLk6GJQsqaUBKTNV-1">
          <mxGeometry width="50" height="50" relative="1" as="geometry">
            <mxPoint x="740" y="819.8499999999999" as="sourcePoint" />
            <mxPoint x="720" y="820.04" as="targetPoint" />
          </mxGeometry>
        </mxCell>
        <mxCell id="08z71slbajwtwQ3pmAD7-194" value="" style="endArrow=classic;html=1;rounded=0;entryX=0;entryY=0.5;entryDx=0;entryDy=0;" edge="1" parent="WIyWlLk6GJQsqaUBKTNV-1">
          <mxGeometry width="50" height="50" relative="1" as="geometry">
            <mxPoint x="740" y="819.85" as="sourcePoint" />
            <mxPoint x="760" y="819.85" as="targetPoint" />
          </mxGeometry>
        </mxCell>
      </root>
    </mxGraphModel>
  </diagram>
</mxfile>
